<svg width="2287" height="252" viewBox="0 0 2287 252" fill="none" xmlns="http://www.w3.org/2000/svg">
<path d="M353.171 191V60.0909H439.847V82.9105H380.848V114.104H434.094V136.923H380.848V191H353.171Z" fill="black"/>
<path d="M454.57 191V92.8182H480.969V109.949H481.992C483.782 103.855 486.786 99.2528 491.005 96.142C495.224 92.9886 500.082 91.4119 505.579 91.4119C506.943 91.4119 508.413 91.4971 509.989 91.6676C511.566 91.838 512.951 92.0724 514.144 92.3707V116.533C512.866 116.149 511.097 115.808 508.839 115.51C506.58 115.212 504.514 115.062 502.639 115.062C498.633 115.062 495.053 115.936 491.9 117.683C488.789 119.388 486.318 121.774 484.485 124.842C482.695 127.91 481.8 131.447 481.8 135.453V191H454.57Z" fill="black"/>
<path d="M551.607 192.854C545.343 192.854 539.761 191.767 534.86 189.594C529.96 187.378 526.082 184.118 523.227 179.814C520.414 175.467 519.008 170.055 519.008 163.578C519.008 158.124 520.009 153.543 522.012 149.835C524.015 146.128 526.742 143.145 530.194 140.886C533.646 138.628 537.566 136.923 541.955 135.773C546.387 134.622 551.032 133.812 555.89 133.344C561.6 132.747 566.203 132.193 569.697 131.682C573.191 131.128 575.727 130.318 577.303 129.253C578.88 128.187 579.668 126.611 579.668 124.523V124.139C579.668 120.091 578.39 116.959 575.833 114.743C573.319 112.527 569.739 111.419 565.095 111.419C560.194 111.419 556.295 112.506 553.397 114.679C550.499 116.81 548.582 119.494 547.644 122.733L522.46 120.687C523.738 114.722 526.252 109.565 530.002 105.219C533.752 100.83 538.589 97.463 544.512 95.1193C550.478 92.7329 557.382 91.5397 565.222 91.5397C570.677 91.5397 575.897 92.179 580.883 93.4574C585.911 94.7358 590.364 96.7173 594.242 99.402C598.163 102.087 601.252 105.538 603.511 109.757C605.769 113.933 606.899 118.94 606.899 124.778V191H581.075V177.385H580.308C578.731 180.453 576.622 183.159 573.98 185.503C571.337 187.804 568.163 189.615 564.455 190.936C560.748 192.214 556.465 192.854 551.607 192.854ZM559.406 174.061C563.411 174.061 566.948 173.273 570.016 171.696C573.085 170.077 575.492 167.903 577.239 165.176C578.987 162.449 579.86 159.359 579.86 155.908V145.489C579.008 146.043 577.836 146.554 576.345 147.023C574.896 147.449 573.255 147.854 571.423 148.237C569.59 148.578 567.758 148.898 565.926 149.196C564.093 149.452 562.431 149.686 560.94 149.899C557.744 150.368 554.953 151.114 552.566 152.136C550.18 153.159 548.326 154.544 547.005 156.291C545.684 157.996 545.024 160.126 545.024 162.683C545.024 166.391 546.366 169.224 549.051 171.185C551.778 173.102 555.23 174.061 559.406 174.061Z" fill="black"/>
<path d="M626.224 191V92.8182H652.176V110.141H653.327C655.372 104.388 658.781 99.8494 663.554 96.5255C668.327 93.2017 674.037 91.5397 680.684 91.5397C687.417 91.5397 693.149 93.223 697.879 96.5895C702.609 99.9133 705.763 104.43 707.339 110.141H708.362C710.365 104.516 713.987 100.02 719.229 96.6534C724.513 93.2443 730.755 91.5397 737.957 91.5397C747.119 91.5397 754.555 94.4588 760.265 100.297C766.018 106.092 768.895 114.317 768.895 124.97V191H741.729V130.339C741.729 124.885 740.28 120.794 737.382 118.067C734.484 115.339 730.862 113.976 726.515 113.976C721.572 113.976 717.716 115.553 714.946 118.706C712.176 121.817 710.791 125.929 710.791 131.043V191H684.392V129.764C684.392 124.949 683.007 121.114 680.237 118.258C677.51 115.403 673.909 113.976 669.434 113.976C666.409 113.976 663.682 114.743 661.253 116.277C658.866 117.768 656.97 119.878 655.564 122.605C654.158 125.29 653.454 128.443 653.454 132.065V191H626.224Z" fill="black"/>
<path d="M833.348 192.918C823.249 192.918 814.556 190.872 807.269 186.781C800.024 182.648 794.442 176.81 790.522 169.267C786.601 161.682 784.641 152.712 784.641 142.357C784.641 132.257 786.601 123.393 790.522 115.766C794.442 108.138 799.96 102.193 807.077 97.9318C814.236 93.6704 822.631 91.5397 832.262 91.5397C838.739 91.5397 844.769 92.5838 850.351 94.6719C855.976 96.7173 860.877 99.8068 865.053 103.94C869.272 108.074 872.553 113.273 874.897 119.537C877.24 125.758 878.412 133.045 878.412 141.398V148.876H795.507V132.001H852.78C852.78 128.081 851.928 124.608 850.223 121.582C848.519 118.557 846.154 116.192 843.128 114.487C840.145 112.74 836.672 111.866 832.709 111.866C828.576 111.866 824.911 112.825 821.715 114.743C818.561 116.618 816.09 119.153 814.3 122.349C812.51 125.503 811.594 129.018 811.551 132.896V148.94C811.551 153.798 812.446 157.996 814.236 161.533C816.068 165.07 818.647 167.797 821.97 169.714C825.294 171.632 829.236 172.591 833.796 172.591C836.821 172.591 839.591 172.165 842.105 171.312C844.62 170.46 846.772 169.182 848.561 167.477C850.351 165.773 851.715 163.685 852.652 161.213L877.837 162.875C876.558 168.926 873.938 174.21 869.975 178.727C866.054 183.202 860.983 186.696 854.762 189.21C848.583 191.682 841.445 192.918 833.348 192.918Z" fill="black"/>
<path d="M913.047 191L886.328 92.8182H913.878L929.091 158.784H929.986L945.838 92.8182H972.876L988.984 158.401H989.815L1004.77 92.8182H1032.26L1005.6 191H976.776L959.901 129.253H958.686L941.811 191H913.047Z" fill="black"/>
<path d="M1086.88 192.918C1076.96 192.918 1068.37 190.808 1061.12 186.589C1053.92 182.328 1048.36 176.405 1044.44 168.82C1040.52 161.192 1038.56 152.349 1038.56 142.293C1038.56 132.151 1040.52 123.287 1044.44 115.702C1048.36 108.074 1053.92 102.151 1061.12 97.9318C1068.37 93.6704 1076.96 91.5397 1086.88 91.5397C1096.81 91.5397 1105.38 93.6704 1112.58 97.9318C1119.82 102.151 1125.41 108.074 1129.33 115.702C1133.25 123.287 1135.21 132.151 1135.21 142.293C1135.21 152.349 1133.25 161.192 1129.33 168.82C1125.41 176.405 1119.82 182.328 1112.58 186.589C1105.38 190.808 1096.81 192.918 1086.88 192.918ZM1087.01 171.824C1091.53 171.824 1095.3 170.545 1098.33 167.989C1101.35 165.389 1103.63 161.852 1105.17 157.378C1106.74 152.903 1107.53 147.811 1107.53 142.101C1107.53 136.391 1106.74 131.298 1105.17 126.824C1103.63 122.349 1101.35 118.812 1098.33 116.213C1095.3 113.614 1091.53 112.314 1087.01 112.314C1082.45 112.314 1078.62 113.614 1075.51 116.213C1072.44 118.812 1070.12 122.349 1068.54 126.824C1067.01 131.298 1066.24 136.391 1066.24 142.101C1066.24 147.811 1067.01 152.903 1068.54 157.378C1070.12 161.852 1072.44 165.389 1075.51 167.989C1078.62 170.545 1082.45 171.824 1087.01 171.824Z" fill="black"/>
<path d="M1151.11 191V92.8182H1177.51V109.949H1178.54C1180.33 103.855 1183.33 99.2528 1187.55 96.142C1191.77 92.9886 1196.63 91.4119 1202.12 91.4119C1203.49 91.4119 1204.96 91.4971 1206.53 91.6676C1208.11 91.838 1209.49 92.0724 1210.69 92.3707V116.533C1209.41 116.149 1207.64 115.808 1205.38 115.51C1203.12 115.212 1201.06 115.062 1199.18 115.062C1195.18 115.062 1191.6 115.936 1188.44 117.683C1185.33 119.388 1182.86 121.774 1181.03 124.842C1179.24 127.91 1178.34 131.447 1178.34 135.453V191H1151.11Z" fill="black"/>
<path d="M1247.64 162.747L1247.7 130.084H1251.67L1283.12 92.8182H1314.37L1272.12 142.165H1265.67L1247.64 162.747ZM1222.97 191V60.0909H1250.2V191H1222.97ZM1284.33 191L1255.44 148.237L1273.59 128.997L1316.23 191H1284.33Z" fill="black"/>
<path d="M1372.37 191H1359.84L1407.46 60.0909H1420.25L1467.87 191H1455.34L1414.3 75.6236H1413.41L1372.37 191ZM1381.38 140.822H1446.33V151.561H1381.38V140.822Z" fill="black"/>
<path d="M1548.53 153.479V92.8182H1559.9V191H1548.53V174.7H1547.63C1545.33 179.729 1541.69 183.926 1536.7 187.293C1531.71 190.616 1525.62 192.278 1518.42 192.278C1512.15 192.278 1506.59 190.915 1501.74 188.187C1496.88 185.418 1493.06 181.369 1490.29 176.043C1487.52 170.716 1486.14 164.175 1486.14 156.419V92.8182H1497.52V155.716C1497.52 163.386 1499.78 169.565 1504.29 174.253C1508.81 178.898 1514.61 181.22 1521.68 181.22C1526.11 181.22 1530.37 180.155 1534.46 178.024C1538.55 175.893 1541.92 172.783 1544.56 168.692C1547.2 164.558 1548.53 159.487 1548.53 153.479Z" fill="black"/>
<path d="M1626.9 92.8182V102.726H1580.04V92.8182H1626.9ZM1594.68 69.2954H1606.12V165.368C1606.12 169.459 1606.83 172.676 1608.23 175.02C1609.64 177.321 1611.47 178.962 1613.73 179.942C1615.99 180.879 1618.4 181.348 1620.95 181.348C1622.44 181.348 1623.72 181.263 1624.79 181.092C1625.85 180.879 1626.79 180.666 1627.6 180.453L1630.03 190.744C1628.92 191.17 1627.56 191.554 1625.94 191.895C1624.32 192.278 1622.32 192.47 1619.93 192.47C1615.75 192.47 1611.73 191.554 1607.85 189.722C1604.01 187.889 1600.86 185.162 1598.39 181.54C1595.92 177.918 1594.68 173.422 1594.68 168.053V69.2954Z" fill="black"/>
<path d="M1688.04 193.045C1679.56 193.045 1672.06 190.893 1665.54 186.589C1659.07 182.285 1654 176.341 1650.33 168.756C1646.67 161.128 1644.83 152.328 1644.83 142.357C1644.83 132.3 1646.67 123.457 1650.33 115.83C1654 108.159 1659.07 102.193 1665.54 97.9318C1672.06 93.6278 1679.56 91.4758 1688.04 91.4758C1696.52 91.4758 1704 93.6278 1710.48 97.9318C1716.96 102.236 1722.03 108.202 1725.69 115.83C1729.4 123.457 1731.25 132.3 1731.25 142.357C1731.25 152.328 1729.42 161.128 1725.76 168.756C1722.09 176.341 1717 182.285 1710.48 186.589C1704 190.893 1696.52 193.045 1688.04 193.045ZM1688.04 182.626C1694.86 182.626 1700.64 180.794 1705.37 177.129C1710.1 173.464 1713.68 168.585 1716.1 162.491C1718.58 156.398 1719.81 149.686 1719.81 142.357C1719.81 135.027 1718.58 128.294 1716.1 122.158C1713.68 116.021 1710.1 111.099 1705.37 107.392C1700.64 103.685 1694.86 101.831 1688.04 101.831C1681.27 101.831 1675.49 103.685 1670.72 107.392C1665.99 111.099 1662.39 116.021 1659.92 122.158C1657.49 128.294 1656.28 135.027 1656.28 142.357C1656.28 149.686 1657.49 156.398 1659.92 162.491C1662.39 168.585 1665.99 173.464 1670.72 177.129C1675.45 180.794 1681.23 182.626 1688.04 182.626Z" fill="black"/>
<path d="M1754.43 191V92.8182H1765.49V107.903H1766.51C1768.47 102.832 1771.73 98.848 1776.29 95.9503C1780.89 93.0099 1786.41 91.5398 1792.85 91.5398C1799.62 91.5398 1805.18 93.1378 1809.53 96.3338C1813.92 99.4872 1817.2 103.834 1819.37 109.374H1820.2C1822.42 103.919 1826.02 99.5937 1831.01 96.3977C1836.04 93.1591 1842.13 91.5398 1849.29 91.5398C1858.41 91.5398 1865.61 94.4162 1870.89 100.169C1876.18 105.879 1878.82 114.232 1878.82 125.226V191H1867.44V125.226C1867.44 117.47 1865.46 111.653 1861.5 107.776C1857.53 103.898 1852.31 101.959 1845.84 101.959C1838.34 101.959 1832.56 104.26 1828.51 108.862C1824.47 113.464 1822.44 119.303 1822.44 126.376V191H1810.81V124.203C1810.81 117.555 1808.95 112.186 1805.25 108.095C1801.54 104.004 1796.32 101.959 1789.59 101.959C1785.07 101.959 1781 103.067 1777.38 105.283C1773.8 107.499 1770.96 110.588 1768.88 114.551C1766.83 118.472 1765.81 122.989 1765.81 128.102V191H1754.43Z" fill="black"/>
<path d="M1934.56 193.237C1928.64 193.237 1923.23 192.087 1918.33 189.786C1913.43 187.442 1909.53 184.075 1906.63 179.686C1903.73 175.254 1902.28 169.885 1902.28 163.578C1902.28 158.72 1903.2 154.629 1905.03 151.305C1906.87 147.982 1909.46 145.254 1912.83 143.124C1916.2 140.993 1920.18 139.31 1924.78 138.074C1929.39 136.838 1934.46 135.879 1940 135.197C1945.49 134.516 1950.14 133.919 1953.93 133.408C1957.77 132.896 1960.69 132.087 1962.69 130.979C1964.69 129.871 1965.69 128.081 1965.69 125.609V123.308C1965.69 116.618 1963.69 111.355 1959.68 107.52C1955.72 103.642 1950.01 101.703 1942.55 101.703C1935.48 101.703 1929.71 103.259 1925.23 106.369C1920.8 109.48 1917.69 113.145 1915.9 117.364L1905.1 113.464C1907.31 108.095 1910.38 103.812 1914.3 100.616C1918.22 97.3778 1922.61 95.0554 1927.47 93.6491C1932.33 92.2003 1937.25 91.4758 1942.23 91.4758C1945.98 91.4758 1949.88 91.9659 1953.93 92.946C1958.02 93.9261 1961.82 95.6307 1965.31 98.0596C1968.8 100.446 1971.64 103.791 1973.81 108.095C1975.98 112.357 1977.07 117.768 1977.07 124.331V191H1965.69V175.467H1964.99C1963.63 178.365 1961.6 181.178 1958.92 183.905C1956.23 186.632 1952.87 188.869 1948.82 190.616C1944.77 192.364 1940.02 193.237 1934.56 193.237ZM1936.1 182.818C1942.15 182.818 1947.39 181.476 1951.82 178.791C1956.25 176.107 1959.66 172.548 1962.05 168.116C1964.48 163.642 1965.69 158.72 1965.69 153.351V139.161C1964.84 139.97 1963.41 140.695 1961.41 141.334C1959.45 141.973 1957.17 142.548 1954.57 143.06C1952.01 143.528 1949.46 143.933 1946.9 144.274C1944.34 144.615 1942.04 144.913 1940 145.169C1934.46 145.851 1929.73 146.916 1925.81 148.365C1921.89 149.814 1918.88 151.817 1916.79 154.374C1914.71 156.888 1913.66 160.126 1913.66 164.089C1913.66 170.055 1915.79 174.679 1920.05 177.96C1924.32 181.199 1929.66 182.818 1936.1 182.818Z" fill="black"/>
<path d="M2044.21 92.8182V102.726H1997.36V92.8182H2044.21ZM2011.99 69.2954H2023.44V165.368C2023.44 169.459 2024.14 172.676 2025.54 175.02C2026.95 177.321 2028.78 178.962 2031.04 179.942C2033.3 180.879 2035.71 181.348 2038.26 181.348C2039.76 181.348 2041.03 181.263 2042.1 181.092C2043.17 180.879 2044.1 180.666 2044.91 180.453L2047.34 190.744C2046.23 191.17 2044.87 191.554 2043.25 191.895C2041.63 192.278 2039.63 192.47 2037.24 192.47C2033.07 192.47 2029.04 191.554 2025.16 189.722C2021.33 187.889 2018.17 185.162 2015.7 181.54C2013.23 177.918 2011.99 173.422 2011.99 168.053V69.2954Z" fill="black"/>
<path d="M2068.38 191V92.8182H2079.82V191H2068.38ZM2074.19 75.9432C2071.85 75.9432 2069.85 75.1548 2068.19 73.5781C2066.52 71.9588 2065.69 70.0199 2065.69 67.7613C2065.69 65.5028 2066.52 63.5852 2068.19 62.0085C2069.85 60.3892 2071.85 59.5795 2074.19 59.5795C2076.54 59.5795 2078.54 60.3892 2080.2 62.0085C2081.86 63.5852 2082.7 65.5028 2082.7 67.7613C2082.7 70.0199 2081.86 71.9588 2080.2 73.5781C2078.54 75.1548 2076.54 75.9432 2074.19 75.9432Z" fill="black"/>
<path d="M2146.27 193.045C2137.79 193.045 2130.29 190.893 2123.77 186.589C2117.29 182.285 2112.22 176.341 2108.56 168.756C2104.89 161.128 2103.06 152.328 2103.06 142.357C2103.06 132.3 2104.89 123.457 2108.56 115.83C2112.22 108.159 2117.29 102.193 2123.77 97.9318C2130.29 93.6278 2137.79 91.4758 2146.27 91.4758C2154.75 91.4758 2162.23 93.6278 2168.71 97.9318C2175.18 102.236 2180.25 108.202 2183.92 115.83C2187.63 123.457 2189.48 132.3 2189.48 142.357C2189.48 152.328 2187.65 161.128 2183.98 168.756C2180.32 176.341 2175.23 182.285 2168.71 186.589C2162.23 190.893 2154.75 193.045 2146.27 193.045ZM2146.27 182.626C2153.09 182.626 2158.86 180.794 2163.59 177.129C2168.32 173.464 2171.9 168.585 2174.33 162.491C2176.8 156.398 2178.04 149.686 2178.04 142.357C2178.04 135.027 2176.8 128.294 2174.33 122.158C2171.9 116.021 2168.32 111.099 2163.59 107.392C2158.86 103.685 2153.09 101.831 2146.27 101.831C2139.49 101.831 2133.72 103.685 2128.95 107.392C2124.22 111.099 2120.62 116.021 2118.15 122.158C2115.72 128.294 2114.5 135.027 2114.5 142.357C2114.5 149.686 2115.72 156.398 2118.15 162.491C2120.62 168.585 2124.22 173.464 2128.95 177.129C2133.68 180.794 2139.45 182.626 2146.27 182.626Z" fill="black"/>
<path d="M2224.04 129.636V191H2212.66V92.8182H2223.72V108.223H2224.74C2227.04 103.195 2230.62 99.1676 2235.48 96.142C2240.38 93.0739 2246.43 91.5398 2253.63 91.5398C2260.24 91.5398 2266.03 92.9247 2271.02 95.6946C2276.04 98.4219 2279.94 102.449 2282.71 107.776C2285.53 113.102 2286.93 119.643 2286.93 127.399V191H2275.55V128.102C2275.55 120.048 2273.3 113.678 2268.78 108.99C2264.3 104.303 2258.3 101.959 2250.75 101.959C2245.6 101.959 2241.02 103.067 2237.01 105.283C2233.01 107.499 2229.83 110.695 2227.49 114.871C2225.19 119.004 2224.04 123.926 2224.04 129.636Z" fill="black"/>
<path d="M251.585 133.296H0C3.77908 199.488 58.6533 252 125.792 252C192.931 252 247.806 199.488 251.585 133.296Z" fill="black"/>
<path d="M248.025 95.2959H3.55978C17.2684 40.5479 66.7951 0 125.792 0C184.789 0 234.316 40.5479 248.025 95.2959Z" fill="black"/>
</svg>
