<svg width="1934" height="135" viewBox="0 0 1934 135" fill="none" xmlns="http://www.w3.org/2000/svg">
<path d="M0.170776 132V1.09094H86.8469V23.9105H27.8483V55.1037H81.0941V77.9233H27.8483V132H0.170776Z" fill="white"/>
<path d="M101.57 132V33.8182H127.969V50.9489H128.992C130.782 44.8551 133.786 40.2529 138.005 37.1421C142.224 33.9887 147.082 32.412 152.579 32.412C153.943 32.412 155.413 32.4972 156.989 32.6676C158.566 32.8381 159.951 33.0725 161.144 33.3708V57.5327C159.866 57.1492 158.097 56.8083 155.839 56.51C153.58 56.2117 151.514 56.0625 149.639 56.0625C145.633 56.0625 142.053 56.9361 138.9 58.6833C135.789 60.3878 133.318 62.7742 131.485 65.8424C129.695 68.9105 128.8 72.4475 128.8 76.4532V132H101.57Z" fill="white"/>
<path d="M198.607 133.854C192.343 133.854 186.761 132.767 181.86 130.594C176.96 128.378 173.082 125.118 170.227 120.814C167.414 116.467 166.008 111.055 166.008 104.578C166.008 99.1236 167.009 94.5427 169.012 90.8353C171.015 87.1279 173.742 84.1449 177.194 81.8864C180.646 79.6279 184.566 77.9233 188.955 76.7728C193.387 75.6222 198.032 74.8125 202.89 74.3438C208.6 73.7472 213.203 73.1932 216.697 72.6819C220.191 72.1279 222.727 71.3182 224.303 70.2529C225.88 69.1875 226.668 67.6108 226.668 65.5228V65.1392C226.668 61.0909 225.39 57.9588 222.833 55.7429C220.319 53.527 216.739 52.4191 212.095 52.4191C207.194 52.4191 203.295 53.5057 200.397 55.679C197.499 57.8097 195.582 60.4944 194.644 63.733L169.46 61.6875C170.738 55.7216 173.252 50.5654 177.002 46.2188C180.752 41.8296 185.589 38.4631 191.512 36.1193C197.478 33.733 204.382 32.5398 212.222 32.5398C217.677 32.5398 222.897 33.179 227.883 34.4574C232.911 35.7358 237.364 37.7174 241.242 40.402C245.163 43.0867 248.252 46.5384 250.511 50.7571C252.769 54.9333 253.899 59.9404 253.899 65.7784V132H228.075V118.385H227.308C225.731 121.453 223.622 124.159 220.98 126.503C218.337 128.804 215.163 130.615 211.455 131.936C207.748 133.215 203.465 133.854 198.607 133.854ZM206.406 115.061C210.411 115.061 213.948 114.273 217.016 112.696C220.085 111.077 222.492 108.903 224.239 106.176C225.987 103.449 226.86 100.359 226.86 96.9077V86.4887C226.008 87.0426 224.836 87.554 223.345 88.0228C221.896 88.4489 220.255 88.8537 218.423 89.2373C216.59 89.5782 214.758 89.8978 212.926 90.1961C211.093 90.4517 209.431 90.6861 207.94 90.8992C204.744 91.3679 201.953 92.1137 199.566 93.1364C197.18 94.1591 195.326 95.5441 194.005 97.2912C192.684 98.9958 192.024 101.126 192.024 103.683C192.024 107.391 193.366 110.224 196.051 112.185C198.778 114.102 202.23 115.061 206.406 115.061Z" fill="white"/>
<path d="M273.224 132V33.8182H299.176V51.1407H300.327C302.372 45.3878 305.781 40.8495 310.554 37.5256C315.327 34.2017 321.037 32.5398 327.684 32.5398C334.417 32.5398 340.149 34.223 344.879 37.5895C349.609 40.9134 352.763 45.4304 354.339 51.1407H355.362C357.365 45.5157 360.987 41.0199 366.229 37.6534C371.513 34.2444 377.755 32.5398 384.957 32.5398C394.119 32.5398 401.555 35.4588 407.265 41.2969C413.018 47.0924 415.895 55.3168 415.895 65.9702V132H388.729V71.3395C388.729 65.885 387.28 61.7941 384.382 59.0668C381.484 56.3395 377.862 54.9759 373.515 54.9759C368.572 54.9759 364.716 56.5526 361.946 59.706C359.176 62.8168 357.791 66.929 357.791 72.0426V132H331.392V70.7642C331.392 65.9489 330.007 62.1137 327.237 59.2586C324.51 56.4034 320.909 54.9759 316.434 54.9759C313.409 54.9759 310.682 55.7429 308.253 57.277C305.866 58.7685 303.97 60.8779 302.564 63.6052C301.158 66.2898 300.454 69.4432 300.454 73.0654V132H273.224Z" fill="white"/>
<path d="M480.348 133.918C470.249 133.918 461.556 131.872 454.269 127.781C447.024 123.648 441.442 117.81 437.522 110.267C433.601 102.682 431.641 93.7117 431.641 83.3566C431.641 73.2571 433.601 64.3935 437.522 56.7657C441.442 49.1378 446.96 43.1932 454.077 38.9318C461.236 34.6705 469.631 32.5398 479.262 32.5398C485.739 32.5398 491.769 33.5838 497.351 35.6719C502.976 37.7174 507.877 40.8069 512.053 44.9404C516.272 49.0739 519.553 54.2728 521.897 60.537C524.24 66.7586 525.412 74.0455 525.412 82.3978V89.8765H442.507V73.0015H499.78C499.78 69.081 498.928 65.608 497.223 62.5824C495.519 59.5569 493.154 57.1918 490.128 55.4873C487.145 53.7401 483.672 52.8665 479.709 52.8665C475.576 52.8665 471.911 53.8253 468.715 55.7429C465.561 57.6179 463.09 60.1534 461.3 63.3495C459.51 66.5029 458.594 70.0185 458.551 73.8963V89.9404C458.551 94.7983 459.446 98.9958 461.236 102.533C463.068 106.07 465.647 108.797 468.97 110.715C472.294 112.632 476.236 113.591 480.796 113.591C483.821 113.591 486.591 113.165 489.105 112.313C491.62 111.46 493.772 110.182 495.561 108.477C497.351 106.773 498.715 104.685 499.652 102.213L524.837 103.875C523.558 109.926 520.938 115.21 516.975 119.727C513.054 124.202 507.983 127.696 501.762 130.21C495.583 132.682 488.445 133.918 480.348 133.918Z" fill="white"/>
<path d="M560.047 132L533.328 33.8182H560.878L576.091 99.7841H576.986L592.838 33.8182H619.876L635.984 99.4006H636.815L651.773 33.8182H679.258L652.604 132H623.776L606.901 70.2529H605.686L588.811 132H560.047Z" fill="white"/>
<path d="M733.884 133.918C723.955 133.918 715.369 131.808 708.124 127.59C700.923 123.328 695.362 117.405 691.441 109.82C687.521 102.192 685.56 93.3495 685.56 83.2926C685.56 73.1506 687.521 64.287 691.441 56.7017C695.362 49.0739 700.923 43.1506 708.124 38.9318C715.369 34.6705 723.955 32.5398 733.884 32.5398C743.813 32.5398 752.379 34.6705 759.58 38.9318C766.825 43.1506 772.407 49.0739 776.327 56.7017C780.248 64.287 782.208 73.1506 782.208 83.2926C782.208 93.3495 780.248 102.192 776.327 109.82C772.407 117.405 766.825 123.328 759.58 127.59C752.379 131.808 743.813 133.918 733.884 133.918ZM734.012 112.824C738.529 112.824 742.3 111.545 745.326 108.989C748.352 106.389 750.631 102.852 752.166 98.3779C753.742 93.9034 754.531 88.8111 754.531 83.1009C754.531 77.3907 753.742 72.2983 752.166 67.8239C750.631 63.3495 748.352 59.8125 745.326 57.2131C742.3 54.6137 738.529 53.314 734.012 53.314C729.453 53.314 725.617 54.6137 722.506 57.2131C719.438 59.8125 717.116 63.3495 715.539 67.8239C714.005 72.2983 713.238 77.3907 713.238 83.1009C713.238 88.8111 714.005 93.9034 715.539 98.3779C717.116 102.852 719.438 106.389 722.506 108.989C725.617 111.545 729.453 112.824 734.012 112.824Z" fill="white"/>
<path d="M798.114 132V33.8182H824.513V50.9489H825.536C827.326 44.8551 830.33 40.2529 834.549 37.1421C838.768 33.9887 843.625 32.412 849.123 32.412C850.486 32.412 851.956 32.4972 853.533 32.6676C855.11 32.8381 856.495 33.0725 857.688 33.3708V57.5327C856.41 57.1492 854.641 56.8083 852.383 56.51C850.124 56.2117 848.057 56.0625 846.182 56.0625C842.177 56.0625 838.597 56.9361 835.444 58.6833C832.333 60.3878 829.861 62.7742 828.029 65.8424C826.239 68.9105 825.344 72.4475 825.344 76.4532V132H798.114Z" fill="white"/>
<path d="M894.64 103.747L894.704 71.0838H898.667L930.116 33.8182H961.373L919.121 83.1648H912.665L894.64 103.747ZM869.966 132V1.09094H897.197V132H869.966ZM931.33 132L902.438 89.2373L920.591 69.9972L963.226 132H931.33Z" fill="white"/>
<path d="M1019.37 132H1006.84L1054.46 1.09096H1067.25L1114.87 132H1102.34L1061.3 16.6236H1060.41L1019.37 132ZM1028.38 81.8225H1093.33V92.5611H1028.38V81.8225Z" fill="white"/>
<path d="M1195.53 94.4787V33.8182H1206.9V132H1195.53V115.7H1194.63C1192.33 120.729 1188.69 124.926 1183.7 128.293C1178.71 131.617 1172.62 133.278 1165.42 133.278C1159.15 133.278 1153.59 131.915 1148.74 129.188C1143.88 126.418 1140.06 122.369 1137.29 117.043C1134.52 111.716 1133.14 105.175 1133.14 97.4191V33.8182H1144.52V96.716C1144.52 104.386 1146.78 110.565 1151.29 115.253C1155.81 119.898 1161.61 122.22 1168.68 122.22C1173.11 122.22 1177.37 121.155 1181.46 119.024C1185.55 116.894 1188.92 113.783 1191.56 109.692C1194.2 105.558 1195.53 100.487 1195.53 94.4787Z" fill="white"/>
<path d="M1273.9 33.8182V43.7259H1227.04V33.8182H1273.9ZM1241.68 10.2955H1253.12V106.368C1253.12 110.459 1253.83 113.676 1255.23 116.02C1256.64 118.321 1258.47 119.962 1260.73 120.942C1262.99 121.879 1265.4 122.348 1267.95 122.348C1269.44 122.348 1270.72 122.263 1271.79 122.092C1272.85 121.879 1273.79 121.666 1274.6 121.453L1277.03 131.744C1275.92 132.171 1274.56 132.554 1272.94 132.895C1271.32 133.278 1269.32 133.47 1266.93 133.47C1262.75 133.47 1258.73 132.554 1254.85 130.722C1251.01 128.889 1247.86 126.162 1245.39 122.54C1242.92 118.918 1241.68 114.422 1241.68 109.053V10.2955Z" fill="white"/>
<path d="M1335.04 134.046C1326.56 134.046 1319.06 131.894 1312.54 127.59C1306.07 123.286 1301 117.341 1297.33 109.756C1293.67 102.128 1291.83 93.3282 1291.83 83.3566C1291.83 73.2998 1293.67 64.4574 1297.33 56.8296C1301 49.1591 1306.07 43.1932 1312.54 38.9319C1319.06 34.6279 1326.56 32.4759 1335.04 32.4759C1343.52 32.4759 1351 34.6279 1357.48 38.9319C1363.96 43.2358 1369.03 49.2018 1372.69 56.8296C1376.4 64.4574 1378.25 73.2998 1378.25 83.3566C1378.25 93.3282 1376.42 102.128 1372.76 109.756C1369.09 117.341 1364 123.286 1357.48 127.59C1351 131.894 1343.52 134.046 1335.04 134.046ZM1335.04 123.626C1341.86 123.626 1347.64 121.794 1352.37 118.129C1357.1 114.465 1360.68 109.585 1363.1 103.492C1365.58 97.3978 1366.81 90.6861 1366.81 83.3566C1366.81 76.027 1365.58 69.2941 1363.1 63.1577C1360.68 57.0214 1357.1 52.0995 1352.37 48.3921C1347.64 44.6847 1341.86 42.831 1335.04 42.831C1328.27 42.831 1322.49 44.6847 1317.72 48.3921C1312.99 52.0995 1309.39 57.0214 1306.92 63.1577C1304.49 69.2941 1303.28 76.027 1303.28 83.3566C1303.28 90.6861 1304.49 97.3978 1306.92 103.492C1309.39 109.585 1312.99 114.465 1317.72 118.129C1322.45 121.794 1328.23 123.626 1335.04 123.626Z" fill="white"/>
<path d="M1401.43 132V33.8182H1412.49V48.9035H1413.51C1415.47 43.8324 1418.73 39.8481 1423.29 36.9503C1427.89 34.01 1433.41 32.5398 1439.85 32.5398C1446.62 32.5398 1452.18 34.1378 1456.53 37.3339C1460.92 40.4873 1464.2 44.8339 1466.37 50.3736H1467.2C1469.42 44.9191 1473.02 40.5938 1478.01 37.3978C1483.04 34.1591 1489.13 32.5398 1496.29 32.5398C1505.41 32.5398 1512.61 35.4162 1517.89 41.1691C1523.18 46.8793 1525.82 55.2316 1525.82 66.2259V132H1514.44V66.2259C1514.44 58.4702 1512.46 52.6535 1508.5 48.7756C1504.53 44.8978 1499.31 42.9589 1492.84 42.9589C1485.34 42.9589 1479.56 45.26 1475.51 49.8623C1471.47 54.4645 1469.44 60.3026 1469.44 67.3765V132H1457.81V65.2032C1457.81 58.5555 1455.95 53.1861 1452.25 49.0952C1448.54 45.0043 1443.32 42.9589 1436.59 42.9589C1432.07 42.9589 1428 44.0668 1424.38 46.2827C1420.8 48.4986 1417.96 51.5881 1415.88 55.5512C1413.83 59.4716 1412.81 63.9887 1412.81 69.1023V132H1401.43Z" fill="white"/>
<path d="M1581.56 134.237C1575.64 134.237 1570.23 133.087 1565.33 130.786C1560.43 128.442 1556.53 125.075 1553.63 120.686C1550.73 116.254 1549.28 110.885 1549.28 104.578C1549.28 99.7202 1550.2 95.6293 1552.03 92.3055C1553.87 88.9816 1556.46 86.2543 1559.83 84.1236C1563.2 81.993 1567.18 80.3097 1571.78 79.0739C1576.39 77.8381 1581.46 76.8793 1587 76.1975C1592.49 75.5157 1597.14 74.9191 1600.93 74.4077C1604.77 73.8964 1607.69 73.0867 1609.69 71.9787C1611.69 70.8708 1612.69 69.081 1612.69 66.6094V64.3083C1612.69 57.618 1610.69 52.3552 1606.68 48.5199C1602.72 44.6421 1597.01 42.7032 1589.55 42.7032C1582.48 42.7032 1576.71 44.2586 1572.23 47.3694C1567.8 50.4802 1564.69 54.1449 1562.9 58.3637L1552.1 54.4645C1554.31 49.0952 1557.38 44.8126 1561.3 41.6165C1565.22 38.3779 1569.61 36.0555 1574.47 34.6492C1579.33 33.2003 1584.25 32.4759 1589.23 32.4759C1592.98 32.4759 1596.88 32.966 1600.93 33.9461C1605.02 34.9262 1608.82 36.6307 1612.31 39.0597C1615.8 41.4461 1618.64 44.7912 1620.81 49.0952C1622.98 53.3566 1624.07 58.7685 1624.07 65.331V132H1612.69V116.467H1611.99C1610.63 119.365 1608.6 122.178 1605.92 124.905C1603.23 127.632 1599.87 129.869 1595.82 131.617C1591.77 133.364 1587.02 134.237 1581.56 134.237ZM1583.1 123.818C1589.15 123.818 1594.39 122.476 1598.82 119.791C1603.25 117.107 1606.66 113.548 1609.05 109.117C1611.48 104.642 1612.69 99.7202 1612.69 94.3509V80.1606C1611.84 80.9702 1610.41 81.6946 1608.41 82.3339C1606.45 82.9731 1604.17 83.5483 1601.57 84.0597C1599.01 84.5285 1596.46 84.9333 1593.9 85.2742C1591.34 85.6151 1589.04 85.9134 1587 86.1691C1581.46 86.8509 1576.73 87.9162 1572.81 89.3651C1568.89 90.814 1565.88 92.8168 1563.79 95.3736C1561.71 97.8878 1560.66 101.126 1560.66 105.09C1560.66 111.055 1562.79 115.679 1567.05 118.96C1571.32 122.199 1576.66 123.818 1583.1 123.818Z" fill="white"/>
<path d="M1691.21 33.8182V43.7259H1644.36V33.8182H1691.21ZM1658.99 10.2955H1670.44V106.368C1670.44 110.459 1671.14 113.676 1672.54 116.02C1673.95 118.321 1675.78 119.962 1678.04 120.942C1680.3 121.879 1682.71 122.348 1685.26 122.348C1686.76 122.348 1688.03 122.263 1689.1 122.092C1690.17 121.879 1691.1 121.666 1691.91 121.453L1694.34 131.744C1693.23 132.171 1691.87 132.554 1690.25 132.895C1688.63 133.278 1686.63 133.47 1684.24 133.47C1680.07 133.47 1676.04 132.554 1672.16 130.722C1668.33 128.889 1665.17 126.162 1662.7 122.54C1660.23 118.918 1658.99 114.422 1658.99 109.053V10.2955Z" fill="white"/>
<path d="M1715.38 132V33.8182H1726.82V132H1715.38ZM1721.19 16.9432C1718.85 16.9432 1716.85 16.1549 1715.19 14.5782C1713.52 12.9589 1712.69 11.0199 1712.69 8.76141C1712.69 6.50289 1713.52 4.58528 1715.19 3.00858C1716.85 1.38925 1718.85 0.57959 1721.19 0.57959C1723.54 0.57959 1725.54 1.38925 1727.2 3.00858C1728.86 4.58528 1729.7 6.50289 1729.7 8.76141C1729.7 11.0199 1728.86 12.9589 1727.2 14.5782C1725.54 16.1549 1723.54 16.9432 1721.19 16.9432Z" fill="white"/>
<path d="M1793.27 134.046C1784.79 134.046 1777.29 131.894 1770.77 127.59C1764.29 123.286 1759.22 117.341 1755.56 109.756C1751.89 102.128 1750.06 93.3282 1750.06 83.3566C1750.06 73.2998 1751.89 64.4574 1755.56 56.8296C1759.22 49.1591 1764.29 43.1932 1770.77 38.9319C1777.29 34.6279 1784.79 32.4759 1793.27 32.4759C1801.75 32.4759 1809.23 34.6279 1815.71 38.9319C1822.18 43.2358 1827.25 49.2018 1830.92 56.8296C1834.63 64.4574 1836.48 73.2998 1836.48 83.3566C1836.48 93.3282 1834.65 102.128 1830.98 109.756C1827.32 117.341 1822.23 123.286 1815.71 127.59C1809.23 131.894 1801.75 134.046 1793.27 134.046ZM1793.27 123.626C1800.09 123.626 1805.86 121.794 1810.59 118.129C1815.32 114.465 1818.9 109.585 1821.33 103.492C1823.8 97.3978 1825.04 90.6861 1825.04 83.3566C1825.04 76.027 1823.8 69.2941 1821.33 63.1577C1818.9 57.0214 1815.32 52.0995 1810.59 48.3921C1805.86 44.6847 1800.09 42.831 1793.27 42.831C1786.49 42.831 1780.72 44.6847 1775.95 48.3921C1771.22 52.0995 1767.62 57.0214 1765.15 63.1577C1762.72 69.2941 1761.5 76.027 1761.5 83.3566C1761.5 90.6861 1762.72 97.3978 1765.15 103.492C1767.62 109.585 1771.22 114.465 1775.95 118.129C1780.68 121.794 1786.45 123.626 1793.27 123.626Z" fill="white"/>
<path d="M1871.04 70.6364V132H1859.66V33.8182H1870.72V49.2231H1871.74C1874.04 44.1947 1877.62 40.1677 1882.48 37.1421C1887.38 34.0739 1893.43 32.5398 1900.63 32.5398C1907.24 32.5398 1913.03 33.9248 1918.02 36.6947C1923.04 39.4219 1926.94 43.4489 1929.71 48.7756C1932.53 54.1023 1933.93 60.6435 1933.93 68.3992V132H1922.55V69.1023C1922.55 61.0483 1920.3 54.6776 1915.78 49.9901C1911.3 45.3026 1905.3 42.9589 1897.75 42.9589C1892.6 42.9589 1888.02 44.0668 1884.01 46.2827C1880.01 48.4986 1876.83 51.6947 1874.49 55.8708C1872.19 60.0043 1871.04 64.9262 1871.04 70.6364Z" fill="white"/>
</svg>
